# xmcd
#
# Track frame offsets:
#	183
#	23620
#	41808
#	73008
#	90670
#	103880
#	127270
#	142795
#	157458
#	171258
#	195670
#	204718
#	237108
#	255333
#	282608
#	300233
#
# Disc length: 4336 seconds
#
# Revision: 0
# Processed by: cddbd v1.5.2PL0 Copyright (c) Steve Scherf et al.
# Submitted via: EZCDAudioConverter 1.3.4.1
#
DISCID=e910ee10
DTITLE=Richard Thompson - Watching The Dark 3/3
DYEAR=1993
DGENRE=
TTITLE0=Al Bowlly's In Heaven [Live]
TTITLE1=Walking Through A Wasted Land
TTITLE2=When The Spell Is Broken [Live]
TTITLE3=Devonside
TTITLE4=Little Blue Number [Live]
TTITLE5=I Ain't Going To Drag My Feet No More [Live]
TTITLE6=Withered And Died
TTITLE7=Nobody's Wedding
TTITLE8=The Poor Ditching Boy
TTITLE9=The Great Valerio
TTITLE10=Twisted
TTITLE11=Calvary Cross [Live]
TTITLE12=Jennie [Live]
TTITLE13=Hand Of Kindness
TTITLE14=Two Left Feet
TTITLE15=Shoot Out The Lights [Live]
EXTD=
EXTT0=
EXTT1=
EXTT2=
EXTT3=
EXTT4=
EXTT5=
EXTT6=
EXTT7=
EXTT8=
EXTT9=
EXTT10=
EXTT11=
EXTT12=
EXTT13=
EXTT14=
EXTT15=
PLAYORDER=
